<?xml version="1.0" encoding="UTF-8"?>
<svg id="Layer_2" data-name="Layer 2" xmlns="http://www.w3.org/2000/svg" viewBox="0 0 203.36 186.53">
  <defs>
    <style>
      .cls-1 {
        fill: #6f7bbf;
      }

      .cls-2 {
        fill: #f1f1f1;
      }

      .cls-3 {
        fill: #ff77c1;
      }

      .cls-4 {
        fill: #ff1b8d;
      }

      .cls-5 {
        fill: #bec9fc;
      }
    </style>
  </defs>
  <g id="Layer_1-2" data-name="Layer 1">
    <g>
      <path class="cls-5" d="M15.07,107.21c16.54-.02,33.28.24,49.9.24,2.82,0,5.65,0,8.47,0h22.6c3.76,0,7.54,0,11.3,0,7.53,0,15.07,0,22.6,0,2.82,0,5.65,0,8.47,0,16.86,0,33.74-.03,50.6,0,4.78,0,9.58,0,14.36,0,.15,14.77-11.79,27.3-26.47,28.25-19.58,0-39.16-.03-58.73,0-12.94.01-25.89.01-38.84,0-17.69-.02-35.39,0-53.08,0C11.64,134.57-.14,122.16,0,107.44c4.59-.01,9.19.02,13.78.01.47,0,.93-.24,1.28-.25Z"/>
      <path class="cls-3" d="M161.46.12c5.05.51,9.89,3.52,13.34,7.14,4.74,4.97,4.43,11.78,4.97,18.2.67,8,1.26,16.02,1.86,24.03,1.19,16.13,2.23,32.28,3.7,48.39.12,1.27.24,2.53.37,3.8.3,2.83.42,4.51,3.29,5.77-16.86-.03-33.74,0-50.6,0V17.06c.7.14.41-.35.53-.75.71-2.39,1.66-5.22,3-7.25,1.43-2.18,5.43-5.68,7.77-6.83,2.97-1.46,8.5-2.45,11.77-2.12Z"/>
      <path class="cls-3" d="M62.14,10c1.32,2.17,2.65,6.75,2.83,9.29v88.15c-16.62,0-33.37-.26-49.91-.24,1.41-.8,2.27-1.79,2.57-3.43,1.41-20.07,2.55-40.15,4.43-60.18.95-10.14,1.84-20.45,4.07-30.41,3.78-16.88,28.03-16.33,36-3.18ZM35.71,15.71c-1.57.29-3.08,2.03-3.21,3.62l-2.61,32.93c.37,5.68,7.93,5.89,8.64.17,1.07-8.65,1.35-18.23,1.95-27,.2-2.96,1.59-7.02-1.34-9.02-1.05-.72-2.17-.93-3.44-.69ZM29.73,68.92c-.42.37-1.12,1.83-1.23,2.42l-1.67,22.58c.69,4.67,7.56,4.98,8.41.17,1.24-7,.74-15.17,1.71-22.3-.26-2.62-2.68-4.37-5.24-3.83-.25.05-1.81.81-1.98.96Z"/>
      <path class="cls-3" d="M96.03,5.53v101.91h-22.6V19.29c-.46-3.99-1.3-8.46-3.26-12.01-.22-.4-.29-.44-.74-.57,7.4-8.15,18.52-9.08,26.6-1.18Z"/>
      <path class="cls-3" d="M128.64,2.21c2.41,1.59,4.73,3.91,5.05,4.26-2.19,4-3.44,8.25-3.78,12.82v88.15c-7.52,0-15.06,0-22.59,0V5.53c0-.85,3.45-2.78,4.15-3.18,4.94-2.85,12.27-3.36,17.16-.14Z"/>
      <path class="cls-5" d="M79.56,161.11c12.31-.44,26.29-.42,38.6,0,3.57.12,6.35.42,9.71,1.7,9.6,3.66,16.33,13.39,16.18,23.72H53.67c-.15-10.3,6.57-20.1,16.18-23.72,3.32-1.25,6.18-1.58,9.71-1.7Z"/>
      <path class="cls-4" d="M107.33,5.53v101.91c-3.76,0-7.54,0-11.3,0V5.53c.05.05.41.03.59.22,1.67,1.68,2.14,3.81,5.18,3.78,2.69-.03,3.42-2.25,4.93-3.78.19-.19.54-.17.59-.22Z"/>
      <path class="cls-1" d="M118.16,135.7h.04c-.87.84-1.77,1.72-2.11,2.88-.18.62-.19,1.27-.2,1.91-.07,4.86-.14,9.72-.21,14.59-.02,1.69.04,3.61,1.31,4.73.44.39,1.04.71,1.17,1.29-12.86-.41-25.74-.42-38.6-.01.77-.7,1.47-1.51,1.85-2.48.38-.98.42-2.06.45-3.11.1-3.58.2-7.17.29-10.75.05-1.66.09-3.34-.27-4.97-.17-.78-.44-1.54-.83-2.24s-1.1-1.2-1.46-1.83c1.56-.24,3.35-.02,4.93-.02h5c3.33,0,6.66,0,10,0h18.66Z"/>
      <path class="cls-4" d="M69.44,6.71c.46.13.52.17.74.57,1.95,3.55,2.8,8.02,3.27,12.01v88.15c-2.83,0-5.66,0-8.48,0V19.29c-.17-2.54-1.51-7.12-2.82-9.29.71-.03,1.31.46,2.01.48,2.59.1,3.81-2.15,5.29-3.78Z"/>
      <path class="cls-4" d="M133.69,6.47c2.59,2.87,4.38,6.48,4.71,10.59v90.38c-2.82,0-5.65,0-8.47,0V19.29c.33-4.57,1.58-8.82,3.77-12.82Z"/>
      <path class="cls-2" d="M35.71,15.71c1.27-.24,2.38-.03,3.44.69,2.93,2,1.54,6.07,1.34,9.02-.6,8.77-.88,18.35-1.95,27-.71,5.73-8.27,5.51-8.64-.17l2.61-32.93c.13-1.59,1.63-3.33,3.21-3.62Z"/>
      <path class="cls-2" d="M29.73,68.92c.17-.15,1.73-.91,1.98-.96,2.57-.54,4.98,1.21,5.24,3.83-.97,7.13-.46,15.3-1.71,22.3-.85,4.8-7.72,4.5-8.41-.17l1.67-22.58c.11-.59.81-2.05,1.23-2.42Z"/>
    </g>
  </g>
</svg>